<?xml version="1.0" standalone="no"?><!DOCTYPE svg PUBLIC "-//W3C//DTD SVG 1.1//EN" "http://www.w3.org/Graphics/SVG/1.1/DTD/svg11.dtd"><svg t="1732771372732" class="icon" viewBox="0 0 1024 1024" version="1.1" xmlns="http://www.w3.org/2000/svg" p-id="4177" xmlns:xlink="http://www.w3.org/1999/xlink" width="200" height="200"><path d="M170.446452 535.948387c1.420387 29.332645 30.72 15.756387 43.998967 6.606452 12.618323-8.720516 16.284903-1.486452 17.408-18.696258 0.72671-11.297032 2.014968-22.594065 1.387355-33.924129-19.059613-1.717677-39.803871 2.807742-55.428129 14.170838-8.026839 5.84671-23.122581 24.509935-7.366193 31.843097" fill="#F6D2A2" p-id="4178"></path><path d="M170.446452 535.948387c4.261161-1.618581 8.786581-2.741677 11.660387-6.606452" fill="#C6B198" p-id="4179"></path><path d="M238.162581 186.401032C125.852903 154.822194 209.424516 11.924645 299.602581 70.722065L238.162581 186.401032z m499.018322-126.414451c88.922839-62.430968 169.25729 78.451613 65.932387 113.895225l-65.932387-113.895225z" fill="#6AD7E5" p-id="4180"></path><path d="M756.306581 897.024c22.594065 13.972645 63.884387 56.220903 29.99329 76.700903-32.536774 29.795097-50.770581-32.701935-79.343484-41.356387 12.321032-16.714323 27.912258-31.942194 49.350194-35.344516zM352.883613 944.755613c-26.491871 4.129032-41.422452 28.011355-63.521032 40.167226-20.810323 12.420129-28.771097-3.963871-30.653936-7.267097-3.270194-1.519484-2.972903 1.354323-8.026839-3.732645-19.323871-30.455742 20.116645-52.719484 40.629678-67.848258 28.572903-5.780645 46.509419 18.993548 61.572129 38.680774z" fill="#F6D2A2" p-id="4181"></path><path d="M242.853161 146.960516c-14.798452-7.861677-25.666065-18.498065-16.615226-35.641806 8.390194-15.855484 23.981419-14.137806 38.812904-6.276129l-22.197678 41.917935z m536.840258-14.897548c14.831484-7.861677 25.699097-18.498065 16.648258-35.641807-8.390194-15.855484-23.981419-14.137806-38.812903-6.276129l22.164645 41.917936z" fill="#000000" p-id="4182"></path><path d="M881.697032 532.215742c-1.420387 29.332645-30.72 15.756387-43.998967 6.606452-12.618323-8.720516-16.284903-1.486452-17.408-18.663226-0.72671-11.297032-2.014968-22.594065-1.387355-33.957162 19.059613-1.717677 39.803871 2.807742 55.428129 14.170839 8.026839 5.84671 23.122581 24.509935 7.366193 31.843097" fill="#F6D2A2" p-id="4183"></path><path d="M881.697032 532.215742c-4.261161-1.585548-8.786581-2.708645-11.660387-6.606452" fill="#C6B198" p-id="4184"></path><path d="M514.807742 0.660645c112.441806 0 217.847742 16.053677 272.813419 124.102194 49.317161 121.096258 31.777032 251.639742 39.308387 379.639742 6.44129 109.86529 20.77729 236.84129-30.191483 338.646709-53.644387 107.156645-187.623226 134.110968-298.050065 130.147097-86.709677-3.105032-191.488-31.380645-240.408774-110.658064-57.443097-92.919742-30.257548-231.12671-26.095484-334.55071 4.954839-122.549677-33.164387-245.429677 7.068903-365.303742C281.005419 38.350452 393.612387 10.24 514.807742 0.660645" fill="#6AD7E5" p-id="4185"></path><path d="M534.660129 151.618065c20.18271 117.330581 212.034065 86.31329 184.485161-32.041291-24.708129-106.165677-191.19071-76.766968-184.485161 32.041291M305.416258 170.578581c26.194581 102.168774 189.770323 76.007226 183.59329-26.491871-7.399226-122.747871-208.59871-99.063742-183.59329 26.491871M557.815742 292.401548c0.099097 15.260903 3.468387 32.404645 0.561548 48.623484-3.897806 7.366194-11.528258 8.158968-18.101677 11.131871a26.657032 26.657032 0 0 1-20.413936-15.921548c-2.34529-18.531097 0.858839-36.467613 1.45342-54.99871l36.500645 11.164903z" fill="#FFFFFF" p-id="4186"></path><path d="M322.923355 153.930323c0 10.669419 5.285161 20.546065 13.807484 25.89729a25.798194 25.798194 0 0 0 27.614967 0 30.455742 30.455742 0 0 0 13.807484-25.930323 30.455742 30.455742 0 0 0-13.807484-25.89729 25.798194 25.798194 0 0 0-27.614967 0 30.455742 30.455742 0 0 0-13.807484 25.89729z" fill="#000000" p-id="4187"></path><path d="M356.583226 160.668903a7.927742 7.927742 0 0 0 3.270193 6.606452 5.714581 5.714581 0 0 0 6.507355 0 7.927742 7.927742 0 0 0 3.270194-6.606452 7.927742 7.927742 0 0 0-3.270194-6.606451 5.714581 5.714581 0 0 0-6.507355 0 7.927742 7.927742 0 0 0-3.270193 6.606451z" fill="#FFFFFF" p-id="4188"></path><path d="M554.809806 146.465032c0 10.669419 5.186065 20.579097 13.576259 25.897291a25.005419 25.005419 0 0 0 27.185548 0 30.587871 30.587871 0 0 0 13.576258-25.897291 30.587871 30.587871 0 0 0-13.576258-25.930322 25.005419 25.005419 0 0 0-27.185548 0 30.587871 30.587871 0 0 0-13.543226 25.930322z" fill="#000000" p-id="4189"></path><path d="M587.941161 153.203613c0 2.708645 1.222194 5.252129 3.204129 6.606452 1.981935 1.32129 4.426323 1.32129 6.408258 0a7.960774 7.960774 0 0 0 3.204129-6.606452 7.960774 7.960774 0 0 0-3.204129-6.606452 5.549419 5.549419 0 0 0-6.408258 0 7.960774 7.960774 0 0 0-3.204129 6.606452zM478.868645 290.749935c-12.056774 29.200516 6.738581 87.634581 39.440516 44.527484-2.34529-18.498065 0.858839-36.467613 1.45342-54.998709l-40.893936 10.471225z" fill="#FFFFFF" p-id="4190"></path><path d="M482.997677 234.529032c-22.461935 1.882839-40.827871 28.605935-29.134451 49.746581 15.459097 27.978323 49.977806-2.477419 71.481806 0.363355 24.774194 0.495484 45.022968 26.161548 64.908387 4.624516 22.098581-23.915355-9.51329-47.236129-34.254451-57.674323l-73.001291 2.906839z" fill="#F6D2A2" p-id="4191"></path><path d="M480.156903 233.339871c-1.651613-38.912 72.538839-43.767742 81.292387-11.230968 8.753548 32.503742-77.625806 40.068129-81.259355 11.230968-2.939871-23.023484 0 0 0 0z" fill="#000000" p-id="4192"></path></svg>