<?xml version="1.0" standalone="no"?><!DOCTYPE svg PUBLIC "-//W3C//DTD SVG 1.1//EN" "http://www.w3.org/Graphics/SVG/1.1/DTD/svg11.dtd"><svg t="1741323230678" class="icon" viewBox="0 0 1024 1024" version="1.1" xmlns="http://www.w3.org/2000/svg" p-id="23052" xmlns:xlink="http://www.w3.org/1999/xlink" width="200" height="200"><path d="M515.2 80c-190.4 0-344 73.6-344 164.8 0 91.2 153.6 164.8 344 164.8s344-73.6 344-164.8c0-91.2-154.4-164.8-344-164.8z" fill="#FCB008" p-id="23053"></path><path d="M515.2 455.2c-190.4 0-344-73.6-344-164.8V416.8c0 91.2 153.6 164.8 344 164.8s344-73.6 344-164.8v-126.4c0 91.2-154.4 164.8-344 164.8z" fill="#FCB008" p-id="23054"></path><path d="M515.2 627.2c-190.4 0-344-73.6-344-164.8v126.4c0 91.2 153.6 164.8 344 164.8s344-73.6 344-164.8v-126.4c0 90.4-154.4 164.8-344 164.8z" fill="#1B9DD6" p-id="23055"></path><path d="M515.2 800c-190.4 0-344-73.6-344-164.8V760.8c0 91.2 153.6 164.8 344 164.8s344-73.6 344-164.8v-126.4c0 92-154.4 165.6-344 165.6z" fill="#1B9DD6" p-id="23056"></path></svg>