<?xml version="1.0" standalone="no"?><!DOCTYPE svg PUBLIC "-//W3C//DTD SVG 1.1//EN" "http://www.w3.org/Graphics/SVG/1.1/DTD/svg11.dtd"><svg t="1732771357695" class="icon" viewBox="0 0 1024 1024" version="1.1" xmlns="http://www.w3.org/2000/svg" p-id="3881" xmlns:xlink="http://www.w3.org/1999/xlink" width="200" height="200"><path d="M64 176C64 114.176 114.176 64 176 64h672c61.824 0 112 50.176 112 112v672A112 112 0 0 1 848 960H176A112 112 0 0 1 64 848V176z" fill="#2E2E2E" p-id="3882"></path><path d="M516.48 692.352c0 4.864 3.84 8.96 8.384 8.96h207.104c4.608 0 8.384-4.096 8.384-8.96v-53.76c0-4.992-3.776-8.96-8.32-8.96H524.8c-4.608 0-8.32 4.032-8.32 8.96v53.76z m-218.368 6.784l215.04-180.352a9.024 9.024 0 0 0 0-13.76l-215.04-180.16a8.896 8.896 0 0 0-14.72 6.784V401.92c0 2.624 1.28 5.12 3.328 6.784L409.6 512 286.72 615.232a9.024 9.024 0 0 0-3.2 6.848v70.272c0 7.616 8.768 11.776 14.592 6.784z" fill="#00EBBE" p-id="3883"></path></svg>