<?xml version="1.0" standalone="no"?><!DOCTYPE svg PUBLIC "-//W3C//DTD SVG 1.1//EN" "http://www.w3.org/Graphics/SVG/1.1/DTD/svg11.dtd"><svg t="1732771364900" class="icon" viewBox="0 0 1024 1024" version="1.1" xmlns="http://www.w3.org/2000/svg" p-id="4027" xmlns:xlink="http://www.w3.org/1999/xlink" width="200" height="200"><path d="M75.896471 66.258824h891.482353v891.482352h-891.482353z" fill="#4E6070" p-id="4028"></path><path d="M427.670588 350.569412H378.311379v141.114428l-16.292443 13.020461-12.731331 10.177355 12.726513 10.162899 16.297261 13.020461v147.412631H427.670588v86.738824H291.572555v-192.434899l-38.83008-31.018767-42.400828-33.871511 42.396009-33.890786 38.834899-31.033223V263.830588H427.670588zM789.366664 548.762805l-38.834899 31.018767v192.434899h-136.098033v-86.738824h49.359209v-147.412631l16.297261-13.020461 12.726513-10.162899-12.731331-10.177355-16.292443-13.020461V350.569412h-49.359209v-86.738824h136.098033v186.136697l38.834899 31.033223 42.396009 33.881148z" fill="#00CCC6" p-id="4029"></path></svg>